<?xml version="1.0" encoding="iso-8859-1"?>
<!-- Uploaded to: SVG Repo, www.svgrepo.com, Generator: SVG Repo Mixer Tools -->
<!DOCTYPE svg PUBLIC "-//W3C//DTD SVG 1.1//EN" "http://www.w3.org/Graphics/SVG/1.1/DTD/svg11.dtd">
<svg fill="#000000" version="1.1" id="Capa_1" xmlns="http://www.w3.org/2000/svg" xmlns:xlink="http://www.w3.org/1999/xlink" 
	 width="800px" height="800px" viewBox="0 0 497.689 497.689"
	 xml:space="preserve">
<g>
	<g>
		<path d="M88.604,318.598c24.989-24.99,65.503-24.99,90.489,0c24.989,24.988,24.989,65.5,0,90.488
			c-3.233,3.233-6.729,6.039-10.417,8.436l80.169,80.168l80.168-80.168c-3.686-2.396-7.182-5.201-10.416-8.436
			c-24.989-24.988-24.989-65.5,0-90.488c24.988-24.99,65.502-24.99,90.488,0c3.234,3.232,6.039,6.73,8.436,10.415l80.168-80.168
			l-80.168-80.168c3.686-2.396,7.184-5.202,10.416-8.436c24.99-24.989,24.99-65.502,0-90.489c-24.988-24.989-65.502-24.989-90.488,0
			c-3.232,3.234-6.037,6.732-8.436,10.417L248.845,0l-80.168,80.168c-2.396-3.685-5.202-7.183-8.436-10.417
			c-24.989-24.989-65.502-24.989-90.489,0c-24.986,24.989-24.989,65.5,0,90.489c3.235,3.234,6.732,6.039,10.417,8.436L0,248.845
			l80.168,80.168C82.566,325.328,85.37,321.83,88.604,318.598z"/>
	</g>
</g>
</svg>